<?xml version="1.0" encoding="UTF-8"?>
<!DOCTYPE svg PUBLIC "-//W3C//DTD SVG 1.1//EN" "http://www.w3.org/Graphics/SVG/1.1/DTD/svg11.dtd">
<svg xmlns="http://www.w3.org/2000/svg" version="1.1" width="88px" height="95px" style="shape-rendering:geometricPrecision; text-rendering:geometricPrecision; image-rendering:optimizeQuality; fill-rule:evenodd; clip-rule:evenodd" xmlns:xlink="http://www.w3.org/1999/xlink">
<g><path style="opacity:0.855" fill="#0e0d0c" d="M 42.5,-0.5 C 42.8333,-0.5 43.1667,-0.5 43.5,-0.5C 47.11,6.55216 51.11,13.3855 55.5,20C 66.1615,20.4998 76.8281,20.6665 87.5,20.5C 87.5,21.1667 87.5,21.8333 87.5,22.5C 81.7558,30.3104 76.7558,38.6438 72.5,47.5C 76.7711,55.8735 81.4378,64.0402 86.5,72C 76.4834,72.1678 66.4834,72.6678 56.5,73.5C 52.2234,80.3919 48.2234,87.3919 44.5,94.5C 43.8333,94.5 43.1667,94.5 42.5,94.5C 39.1574,86.9846 35.1574,79.818 30.5,73C 20.172,72.5002 9.83871,72.3335 -0.5,72.5C -0.5,71.8333 -0.5,71.1667 -0.5,70.5C 4.97565,62.9006 9.97565,54.9006 14.5,46.5C 9.72564,37.9375 4.72564,29.6041 -0.5,21.5C -0.5,21.1667 -0.5,20.8333 -0.5,20.5C 9.85478,20.8319 20.1881,20.4986 30.5,19.5C 34.5113,12.8056 38.5113,6.13894 42.5,-0.5 Z"/></g>
<g><path style="opacity:1" fill="#e1e021" d="M 50.5,19.5 C 45.3595,20.4881 40.0262,20.8214 34.5,20.5C 37.0709,15.6947 39.9043,11.0281 43,6.5C 46.0289,10.5615 48.5289,14.8949 50.5,19.5 Z"/></g>
<g><path style="opacity:1" fill="#96965a" d="M 50.5,19.5 C 51.0431,19.56 51.3764,19.8933 51.5,20.5C 48.5,20.8333 45.5,21.1667 42.5,21.5C 39.0622,21.5513 36.3955,21.218 34.5,20.5C 40.0262,20.8214 45.3595,20.4881 50.5,19.5 Z"/></g>
<g><path style="opacity:1" fill="#645555" d="M 27.5,25.5 C 20.5,24.1667 13.5,24.1667 6.5,25.5C 5.95691,25.44 5.62358,25.1067 5.5,24.5C 13.1667,23.1667 20.8333,23.1667 28.5,24.5C 28.3764,25.1067 28.0431,25.44 27.5,25.5 Z"/></g>
<g><path style="opacity:1" fill="#545f65" d="M 57.5,24.5 C 65.3428,23.1796 73.3428,23.1796 81.5,24.5C 81.3764,25.1067 81.0431,25.44 80.5,25.5C 73.0182,24.508 65.3516,24.1746 57.5,24.5 Z"/></g>
<g><path style="opacity:1" fill="#ec7779" d="M 27.5,25.5 C 24.264,31.6365 20.764,37.6365 17,43.5C 13.236,37.6365 9.73601,31.6365 6.5,25.5C 13.5,24.1667 20.5,24.1667 27.5,25.5 Z"/></g>
<g><path style="opacity:1" fill="#fdcf62" d="M 31.5,24.5 C 38.8409,24.3337 46.1742,24.5003 53.5,25C 58,32.1667 62.5,39.3333 67,46.5C 64.2647,53.9604 60.4314,60.9604 55.5,67.5C 47.5,68.8333 39.5,68.8333 31.5,67.5C 28,61.8333 24.5,56.1667 21,50.5C 19.6986,48.6354 19.3653,46.6354 20,44.5C 24.1097,37.9417 27.943,31.275 31.5,24.5 Z"/></g>
<g><path style="opacity:1" fill="#65c4dc" d="M 57.5,24.5 C 65.3516,24.1746 73.0182,24.508 80.5,25.5C 77.1093,31.942 73.4427,38.2753 69.5,44.5C 65.0751,38.0781 61.0751,31.4114 57.5,24.5 Z"/></g>
<g><path style="opacity:1" fill="#b42626" d="M 42.5,44.5 C 43.5,44.5 44.5,44.5 45.5,44.5C 45.5,45.8333 45.5,47.1667 45.5,48.5C 44.5,48.5 43.5,48.5 42.5,48.5C 42.5,47.1667 42.5,45.8333 42.5,44.5 Z"/></g>
<g><path style="opacity:1" fill="#6eba45" d="M 27.5,67.5 C 20.5,68.8333 13.5,68.8333 6.5,67.5C 9.72438,61.391 13.2244,55.391 17,49.5C 20.328,55.6469 23.828,61.6469 27.5,67.5 Z"/></g>
<g><path style="opacity:1" fill="#ea75aa" d="M 79.5,67.5 C 72.8333,68.8333 66.1667,68.8333 59.5,67.5C 62.4109,61.9182 65.7442,56.5849 69.5,51.5C 73.3308,56.4888 76.6641,61.8222 79.5,67.5 Z"/></g>
<g><path style="opacity:1" fill="#67805b" d="M 6.5,67.5 C 13.5,68.8333 20.5,68.8333 27.5,67.5C 28.0431,67.56 28.3764,67.8933 28.5,68.5C 20.8333,69.8333 13.1667,69.8333 5.5,68.5C 5.62358,67.8933 5.95691,67.56 6.5,67.5 Z"/></g>
<g><path style="opacity:1" fill="#8b6a7c" d="M 59.5,67.5 C 66.1667,68.8333 72.8333,68.8333 79.5,67.5C 80.0431,67.56 80.3764,67.8933 80.5,68.5C 73.1667,69.8333 65.8333,69.8333 58.5,68.5C 58.6236,67.8933 58.9569,67.56 59.5,67.5 Z"/></g>
<g><path style="opacity:1" fill="#c1b5b5" d="M 34.5,71.5 C 40.8421,71.3338 47.1754,71.5005 53.5,72C 50.3637,77.3011 47.0304,82.4678 43.5,87.5C 39.9693,82.4358 36.9693,77.1025 34.5,71.5 Z"/></g>
</svg>
